<?xml version="1.0" encoding="UTF-8"?>
<svg width="593px" height="362px" style="background:transparent;height:362px;width:593px" contentStyleType="text/css" preserveAspectRatio="none" version="1.1" viewBox="0 0 593 362" xmlns="http://www.w3.org/2000/svg" xmlns:xlink="http://www.w3.org/1999/xlink" zoomAndPan="magnify">
<a href="RadarMN2.html" target="_top" title="RadarMN2.html" xlink:actuate="onRequest" xlink:href="RadarMN2.html" xlink:show="new" xlink:title="RadarMN2.html" xlink:type="simple">
<g id="a">
<rect id="b" x="46.5" y="7" width="499" height="233.2" rx="2.5" ry="2.5" fill="#F1F1F1" stroke="#181818" stroke-width=".5" codeLine="5"/>
<ellipse cx="171.75" cy="25.969" rx="11" ry="11" fill="#ADD1B2" stroke="#181818"/>
<path d="m174.72 31.609q-0.5782 0.2969-1.2188 0.4375-0.6406 0.1562-1.3437 0.1562-2.5 0-3.8282-1.6406-1.3125-1.6562-1.3125-4.7812t1.3125-4.7813q1.3282-1.6562 3.8282-1.6562 0.7031 0 1.3437 0.1562 0.6563 0.1563 1.2188 0.4531v2.7188q-0.625-0.5781-1.2188-0.8438-0.5937-0.2812-1.2187-0.2812-1.3438 0-2.0313 1.0781-0.6875 1.0625-0.6875 3.1563 0 2.0937 0.6875 3.1718 0.6875 1.0625 2.0313 1.0625 0.625 0 1.2187-0.2656 0.5938-0.2812 1.2188-0.8594v2.7188z"/>
<text x="276.75" y="24.9951" fill="#000000" font-family="sans-serif" font-size="14" textLength="71">RadarMN2</text>
<text x="192.25" y="37.5791" fill="#000000" font-family="sans-serif" font-size="10" textLength="240">de.kaffeemitkoffein.tinyweatherforecastgermany</text>
<line x1="47.5" x2="544.5" y1="44.938" y2="44.938" stroke="#181818" stroke-width=".5"/>
<ellipse cx="57.5" cy="58.586" rx="3" ry="3" fill="none" stroke="#038048"/>
<text x="66.5" y="61.9326" fill="#000000" font-family="sans-serif" font-size="14" text-decoration="underline" textLength="132">WIDTH_SCALE2: int</text>
<ellipse cx="57.5" cy="74.883" rx="3" ry="3" fill="none" stroke="#038048"/>
<text x="66.5" y="78.2295" fill="#000000" font-family="sans-serif" font-size="14" text-decoration="underline" textLength="89">BBOX: String</text>
<line x1="47.5" x2="544.5" y1="85.531" y2="85.531" stroke="#181818" stroke-width=".5"/>
<ellipse cx="57.5" cy="99.18" rx="3" ry="3" fill="#84BE84" stroke="#038048"/>
<text x="66.5" y="102.5264" fill="#000000" font-family="sans-serif" font-size="14" text-decoration="underline" textLength="193">getScaleFactor(Context): int</text>
<ellipse cx="57.5" cy="115.48" rx="3" ry="3" fill="#84BE84" stroke="#038048"/>
<text x="66.5" y="118.8232" fill="#000000" font-family="sans-serif" font-size="14" text-decoration="underline" textLength="225">getTrueScaleFactor(Context): int</text>
<ellipse cx="57.5" cy="131.77" rx="3" ry="3" fill="#84BE84" stroke="#038048"/>
<text x="66.5" y="135.1201" fill="#000000" font-family="sans-serif" font-size="14" text-decoration="underline" textLength="209">getMapResource(Context): int</text>
<ellipse cx="57.5" cy="148.07" rx="3" ry="3" fill="#84BE84" stroke="#038048"/>
<text x="66.5" y="151.417" fill="#000000" font-family="sans-serif" font-size="14" text-decoration="underline" textLength="257">getFixedRadarMapWidth(Context): int</text>
<ellipse cx="57.5" cy="164.37" rx="3" ry="3" fill="#84BE84" stroke="#038048"/>
<text x="66.5" y="167.7139" fill="#000000" font-family="sans-serif" font-size="14" text-decoration="underline" textLength="263">getFixedRadarMapHeight(Context): int</text>
<ellipse cx="57.5" cy="180.66" rx="3" ry="3" fill="#84BE84" stroke="#038048"/>
<text x="66.5" y="184.0107" fill="#000000" font-family="sans-serif" font-size="14" text-decoration="underline" textLength="473">getRadarMapMercatorProjectionTile(Context): MercatorProjectionTile</text>
<ellipse cx="57.5" cy="196.96" rx="3" ry="3" fill="#84BE84" stroke="#038048"/>
<text x="66.5" y="200.3076" fill="#000000" font-family="sans-serif" font-size="14" text-decoration="underline" textLength="162">getPixels(Context): int[]</text>
<ellipse cx="57.5" cy="213.26" rx="3" ry="3" fill="#84BE84" stroke="#038048"/>
<text x="66.5" y="216.6045" fill="#000000" font-family="sans-serif" font-size="14" text-decoration="underline" textLength="217">getBitmap(Context, int): Bitmap</text>
<ellipse cx="57.5" cy="229.55" rx="3" ry="3" fill="#84BE84" stroke="#038048"/>
<text x="66.5" y="232.9014" fill="#000000" font-family="sans-serif" font-size="14" text-decoration="underline" textLength="263">getScaledBitmap(Context, int): Bitmap</text>
</g>
</a>
<a href="RadarMN2.MercatorProjection.html" target="_top" title="RadarMN2.MercatorProjection.html" xlink:actuate="onRequest" xlink:href="RadarMN2.MercatorProjection.html" xlink:show="new" xlink:title="RadarMN2.MercatorProjection.html" xlink:type="simple">
<g id="c">
<rect id="d" x="7" y="300" width="272" height="37.938" rx="2.5" ry="2.5" fill="#F1F1F1" stroke="#181818" stroke-width=".5" codeLine="18"/>
<ellipse cx="22" cy="318.97" rx="11" ry="11" fill="#ADD1B2" stroke="#181818"/>
<path d="m24.969 324.61q-0.5782 0.2969-1.2188 0.4375-0.6406 0.1562-1.3437 0.1562-2.5 0-3.8282-1.6406-1.3125-1.6562-1.3125-4.7812t1.3125-4.7813q1.3282-1.6562 3.8282-1.6562 0.7031 0 1.3437 0.1562 0.6563 0.1563 1.2188 0.4531v2.7188q-0.625-0.5781-1.2188-0.8438-0.5937-0.2812-1.2187-0.2812-1.3438 0-2.0313 1.0781-0.6875 1.0625-0.6875 3.1563 0 2.0937 0.6875 3.1718 0.6875 1.0625 2.0313 1.0625 0.625 0 1.2187-0.2656 0.5938-0.2812 1.2188-0.8594v2.7188z"/>
<text x="53.5" y="317.9951" fill="#000000" font-family="sans-serif" font-size="14" textLength="205">RadarMN2.MercatorProjection</text>
<text x="36" y="330.5791" fill="#000000" font-family="sans-serif" font-size="10" textLength="240">de.kaffeemitkoffein.tinyweatherforecastgermany</text>
</g>
</a>
<a href="RadarMN2.MercatorProjectionTile.html" target="_top" title="RadarMN2.MercatorProjectionTile.html" xlink:actuate="onRequest" xlink:href="RadarMN2.MercatorProjectionTile.html" xlink:show="new" xlink:title="RadarMN2.MercatorProjectionTile.html" xlink:type="simple">
<g id="e">
<rect id="f" x="314" y="300" width="272" height="37.938" rx="2.5" ry="2.5" fill="#F1F1F1" stroke="#181818" stroke-width=".5" codeLine="19"/>
<ellipse cx="329" cy="318.97" rx="11" ry="11" fill="#ADD1B2" stroke="#181818"/>
<path d="m331.97 324.61q-0.5782 0.2969-1.2188 0.4375-0.6406 0.1562-1.3437 0.1562-2.5 0-3.8282-1.6406-1.3125-1.6562-1.3125-4.7812t1.3125-4.7813q1.3282-1.6562 3.8282-1.6562 0.7031 0 1.3437 0.1562 0.6563 0.1563 1.2188 0.4531v2.7188q-0.625-0.5781-1.2188-0.8438-0.5937-0.2812-1.2187-0.2812-1.3438 0-2.0313 1.0781-0.6875 1.0625-0.6875 3.1563 0 2.0937 0.6875 3.1718 0.6875 1.0625 2.0313 1.0625 0.625 0 1.2187-0.2656 0.5938-0.2812 1.2188-0.8594v2.7188z"/>
<text x="348.5" y="317.9951" fill="#000000" font-family="sans-serif" font-size="14" textLength="229">RadarMN2.MercatorProjectionTile</text>
<text x="343" y="330.5791" fill="#000000" font-family="sans-serif" font-size="10" textLength="240">de.kaffeemitkoffein.tinyweatherforecastgermany</text>
</g>
</a>
<g id="g" stroke="#181818">
<path id="h" d="m194.65 252.68c-18.51 23.41-25.876 32.729-37.396 47.299" fill="none" codeLine="21"/>
<ellipse cx="199.61" cy="246.41" rx="8" ry="8" fill="#fff"/>
<line x1="194.65" x2="204.57" y1="252.68" y2="240.13"/>
<line x1="193.33" x2="205.88" y1="241.44" y2="251.37"/>
</g>
<g id="i" stroke="#181818">
<path id="j" d="m397.99 252.65c18.63 23.41 26.067 32.761 37.667 47.331" fill="none" codeLine="22"/>
<ellipse cx="393.01" cy="246.39" rx="8" ry="8" fill="#fff"/>
<line x1="397.99" x2="388.03" y1="252.65" y2="240.13"/>
<line x1="386.75" x2="399.27" y1="251.37" y2="241.41"/>
</g>
<text x="199.5" y="352.2197" fill="#888888" font-family="sans-serif" font-size="10" textLength="180">UMLDoclet 2.1.2, PlantUML 1.2024.3</text>
</svg>
