<?xml version="1.0" encoding="UTF-8"?>
<svg width="593px" height="274px" style="background:transparent;height:274px;width:593px" contentStyleType="text/css" preserveAspectRatio="none" version="1.1" viewBox="0 0 593 274" xmlns="http://www.w3.org/2000/svg" xmlns:xlink="http://www.w3.org/1999/xlink" zoomAndPan="magnify">
<a href="RadarMN2.MercatorProjectionTile.html" target="_top" title="RadarMN2.MercatorProjectionTile.html" xlink:actuate="onRequest" xlink:href="RadarMN2.MercatorProjectionTile.html" xlink:show="new" xlink:title="RadarMN2.MercatorProjectionTile.html" xlink:type="simple">
<g id="a">
<rect id="b" x="65" y="105" width="462" height="143.72" rx="2.5" ry="2.5" fill="#F1F1F1" stroke="#181818" stroke-width=".5" codeLine="5"/>
<ellipse cx="171.75" cy="123.97" rx="11" ry="11" fill="#ADD1B2" stroke="#181818"/>
<path d="m174.72 129.61q-0.5782 0.2969-1.2188 0.4375-0.6406 0.1562-1.3437 0.1562-2.5 0-3.8282-1.6406-1.3125-1.6562-1.3125-4.7812t1.3125-4.7813q1.3282-1.6562 3.8282-1.6562 0.7031 0 1.3437 0.1562 0.6563 0.1563 1.2188 0.4531v2.7188q-0.625-0.5781-1.2188-0.8438-0.5937-0.2812-1.2187-0.2812-1.3438 0-2.0313 1.0781-0.6875 1.0625-0.6875 3.1563 0 2.0937 0.6875 3.1718 0.6875 1.0625 2.0313 1.0625 0.625 0 1.2187-0.2656 0.5938-0.2812 1.2188-0.8594v2.7188z"/>
<text x="197.75" y="122.9951" fill="#000000" font-family="sans-serif" font-size="14" textLength="229">RadarMN2.MercatorProjectionTile</text>
<text x="192.25" y="135.5791" fill="#000000" font-family="sans-serif" font-size="10" textLength="240">de.kaffeemitkoffein.tinyweatherforecastgermany</text>
<line x1="66" x2="526" y1="142.94" y2="142.94" stroke="#181818" stroke-width=".5"/>
<ellipse cx="76" cy="156.59" rx="3" ry="3" fill="#84BE84" stroke="#038048"/>
<text x="85" y="159.9326" fill="#000000" font-family="sans-serif" font-size="14" textLength="436">MercatorProjectionTile(double, double, double, double, double)</text>
<ellipse cx="76" cy="172.88" rx="3" ry="3" fill="#84BE84" stroke="#038048"/>
<text x="85" y="176.2295" fill="#000000" font-family="sans-serif" font-size="14" textLength="197">setScaleFactor(double): void</text>
<ellipse cx="76" cy="189.18" rx="3" ry="3" fill="#84BE84" stroke="#038048"/>
<text x="85" y="192.5264" fill="#000000" font-family="sans-serif" font-size="14" textLength="178">getXPixel(double): double</text>
<ellipse cx="76" cy="205.48" rx="3" ry="3" fill="#84BE84" stroke="#038048"/>
<text x="85" y="208.8232" fill="#000000" font-family="sans-serif" font-size="14" textLength="178">getYPixel(double): double</text>
<ellipse cx="76" cy="221.77" rx="3" ry="3" fill="#84BE84" stroke="#038048"/>
<text x="85" y="225.1201" fill="#000000" font-family="sans-serif" font-size="14" textLength="189">getXCoord(double): double</text>
<ellipse cx="76" cy="238.07" rx="3" ry="3" fill="#84BE84" stroke="#038048"/>
<text x="85" y="241.417" fill="#000000" font-family="sans-serif" font-size="14" textLength="189">getYCoord(double): double</text>
</g>
</a>
<a href="RadarMN2.MercatorProjection.html" target="_top" title="RadarMN2.MercatorProjection.html" xlink:actuate="onRequest" xlink:href="RadarMN2.MercatorProjection.html" xlink:show="new" xlink:title="RadarMN2.MercatorProjection.html" xlink:type="simple">
<g id="c">
<rect id="d" x="7" y="7" width="272" height="37.938" rx="2.5" ry="2.5" fill="#F1F1F1" stroke="#181818" stroke-width=".5" codeLine="14"/>
<ellipse cx="22" cy="25.969" rx="11" ry="11" fill="#ADD1B2" stroke="#181818"/>
<path d="m24.969 31.609q-0.5782 0.2969-1.2188 0.4375-0.6406 0.1562-1.3437 0.1562-2.5 0-3.8282-1.6406-1.3125-1.6562-1.3125-4.7812t1.3125-4.7813q1.3282-1.6562 3.8282-1.6562 0.7031 0 1.3437 0.1562 0.6563 0.1563 1.2188 0.4531v2.7188q-0.625-0.5781-1.2188-0.8438-0.5937-0.2812-1.2187-0.2812-1.3438 0-2.0313 1.0781-0.6875 1.0625-0.6875 3.1563 0 2.0937 0.6875 3.1718 0.6875 1.0625 2.0313 1.0625 0.625 0 1.2187-0.2656 0.5938-0.2812 1.2188-0.8594v2.7188z"/>
<text x="53.5" y="24.9951" fill="#000000" font-family="sans-serif" font-size="14" textLength="205">RadarMN2.MercatorProjection</text>
<text x="36" y="37.5791" fill="#000000" font-family="sans-serif" font-size="10" textLength="240">de.kaffeemitkoffein.tinyweatherforecastgermany</text>
</g>
</a>
<a href="RadarMN2.html" target="_top" title="RadarMN2.html" xlink:actuate="onRequest" xlink:href="RadarMN2.html" xlink:show="new" xlink:title="RadarMN2.html" xlink:type="simple">
<g id="e">
<rect id="f" x="314" y="7" width="272" height="37.938" rx="2.5" ry="2.5" fill="#F1F1F1" stroke="#181818" stroke-width=".5" codeLine="15"/>
<ellipse cx="329" cy="25.969" rx="11" ry="11" fill="#ADD1B2" stroke="#181818"/>
<path d="m331.97 31.609q-0.5782 0.2969-1.2188 0.4375-0.6406 0.1562-1.3437 0.1562-2.5 0-3.8282-1.6406-1.3125-1.6562-1.3125-4.7812t1.3125-4.7813q1.3282-1.6562 3.8282-1.6562 0.7031 0 1.3437 0.1562 0.6563 0.1563 1.2188 0.4531v2.7188q-0.625-0.5781-1.2188-0.8438-0.5937-0.2812-1.2187-0.2812-1.3438 0-2.0313 1.0781-0.6875 1.0625-0.6875 3.1563 0 2.0937 0.6875 3.1718 0.6875 1.0625 2.0313 1.0625 0.625 0 1.2187-0.2656 0.5938-0.2812 1.2188-0.8594v2.7188z"/>
<text x="427.5" y="24.9951" fill="#000000" font-family="sans-serif" font-size="14" textLength="71">RadarMN2</text>
<text x="343" y="37.5791" fill="#000000" font-family="sans-serif" font-size="10" textLength="240">de.kaffeemitkoffein.tinyweatherforecastgermany</text>
</g>
</a>
<g id="g" fill="none" stroke="#181818">
<path id="h" d="m174.65 57.83c15.48 15.08 25.607 24.94 48.237 46.97" codeLine="17"/>
<polygon points="161.76 45.27 170.47 62.128 178.84 53.532"/>
</g>
<g id="i" stroke="#181818">
<path id="j" d="m419.62 56.398c-15.58 15.08-27.263 26.372-50.033 48.402" fill="none" codeLine="18"/>
<ellipse cx="425.37" cy="50.834" rx="8" ry="8" fill="#fff"/>
<line x1="419.62" x2="431.12" y1="56.398" y2="45.27"/>
<line x1="419.81" x2="430.94" y1="45.086" y2="56.582"/>
</g>
<text x="199.5" y="264.001" fill="#888888" font-family="sans-serif" font-size="10" textLength="180">UMLDoclet 2.1.2, PlantUML 1.2024.3</text>
</svg>
