<?xml version="1.0" encoding="UTF-8"?>
<svg width="470px" height="193px" style="background:transparent;height:193px;width:470px" contentStyleType="text/css" preserveAspectRatio="none" version="1.1" viewBox="0 0 470 193" xmlns="http://www.w3.org/2000/svg" xmlns:xlink="http://www.w3.org/1999/xlink" zoomAndPan="magnify">
<a href="SeekBarPreference.html" target="_top" title="SeekBarPreference.html" xlink:actuate="onRequest" xlink:href="SeekBarPreference.html" xlink:show="new" xlink:title="SeekBarPreference.html" xlink:type="simple">
<g id="a">
<rect id="b" x="7" y="7" width="449" height="160.02" rx="2.5" ry="2.5" fill="#F1F1F1" stroke="#181818" stroke-width=".5" codeLine="5"/>
<ellipse cx="107.25" cy="25.969" rx="11" ry="11" fill="#ADD1B2" stroke="#181818"/>
<path d="m110.22 31.609q-0.5782 0.2969-1.2188 0.4375-0.6406 0.1562-1.3437 0.1562-2.5 0-3.8282-1.6406-1.3125-1.6562-1.3125-4.7812t1.3125-4.7813q1.3282-1.6562 3.8282-1.6562 0.7031 0 1.3437 0.1562 0.6563 0.1563 1.2188 0.4531v2.7188q-0.625-0.5781-1.2188-0.8438-0.5937-0.2812-1.2187-0.2812-1.3438 0-2.0313 1.0781-0.6875 1.0625-0.6875 3.1563 0 2.0937 0.6875 3.1718 0.6875 1.0625 2.0313 1.0625 0.625 0 1.2187-0.2656 0.5938-0.2812 1.2188-0.8594v2.7188z"/>
<text x="180.75" y="24.9951" fill="#000000" font-family="sans-serif" font-size="14" textLength="134">SeekBarPreference</text>
<text x="127.75" y="37.5791" fill="#000000" font-family="sans-serif" font-size="10" textLength="240">de.kaffeemitkoffein.tinyweatherforecastgermany</text>
<line x1="8" x2="455" y1="44.938" y2="44.938" stroke="#181818" stroke-width=".5"/>
<ellipse cx="18" cy="58.586" rx="3" ry="3" fill="#84BE84" stroke="#038048"/>
<text x="27" y="61.9326" fill="#000000" font-family="sans-serif" font-size="14" textLength="313">SeekBarPreference(Context, AttributeSet, int)</text>
<ellipse cx="18" cy="74.883" rx="3" ry="3" fill="#84BE84" stroke="#038048"/>
<text x="27" y="78.2295" fill="#000000" font-family="sans-serif" font-size="14" textLength="288">SeekBarPreference(Context, AttributeSet)</text>
<polygon points="18 86.18 22 90.18 18 94.18 14 90.18" fill="#ff4" stroke="#B38D22"/>
<text x="27" y="94.5264" fill="#000000" font-family="sans-serif" font-size="14" textLength="222">onCreateView(ViewGroup): View</text>
<ellipse cx="18" cy="107.48" rx="3" ry="3" fill="#84BE84" stroke="#038048"/>
<text x="27" y="110.8232" fill="#000000" font-family="sans-serif" font-size="14" textLength="148">setProgress(int): void</text>
<ellipse cx="18" cy="123.77" rx="3" ry="3" fill="#84BE84" stroke="#038048"/>
<text x="27" y="127.1201" fill="#000000" font-family="sans-serif" font-size="14" textLength="113">setMax(int): void</text>
<ellipse cx="18" cy="140.07" rx="3" ry="3" fill="#84BE84" stroke="#038048"/>
<text x="27" y="143.417" fill="#000000" font-family="sans-serif" font-size="14" textLength="423">setSeekBarChangeListener(OnSeekBarChangeListener): void</text>
<polygon points="18 151.37 22 155.37 18 159.37 14 155.37" fill="#ff4" stroke="#B38D22"/>
<text x="27" y="159.7139" fill="#000000" font-family="sans-serif" font-size="14" textLength="160">onBindView(View): void</text>
</g>
</a>
<text x="141" y="183.2979" fill="#888888" font-family="sans-serif" font-size="10" textLength="180">UMLDoclet 2.1.2, PlantUML 1.2024.3</text>
</svg>
